# xmcd CD database file
#
# Track frame offsets:
#	150
#	26130
#	44213
#	64748
#	80568
#	117385
#	144095
#	159880
#	178493
#	204778
#	258728
#	277193
#
# Disc length: 3984 seconds
#
# Revision: 1
# Processed by: cddbd v1.5.1PL2 Copyright (c) Steve Scherf et al.
# Submitted via: CDex 1.51
#
DISCID=b50f8e0c
DTITLE=Dire Straits - Money For Nothing
DYEAR=1988
DGENRE=Rock
TTITLE0=Sultans Of Swing
TTITLE1=Down To The Waterline
TTITLE2=Portobello Belle - Live
TTITLE3=Twisting By The Pool (remix)
TTITLE4=Tunnel Of Love
TTITLE5=Romeo And Juliet
TTITLE6=Where Do You Think You're Going
TTITLE7=Walk Of Life
TTITLE8=Private Investigations
TTITLE9=Telegraph Road - Live (remix)
TTITLE10=Money For Nothing
TTITLE11=Brothers In Arms
EXTD=YEAR: 1988
EXTT0=
EXTT1=
EXTT2=
EXTT3=
EXTT4=
EXTT5=
EXTT6=
EXTT7=
EXTT8=
EXTT9=
EXTT10=
EXTT11=
PLAYORDER=
